adventprofmm_reg_krn_t1_2.ufo
<glyph name="hyphen" format="1">
  <advance width="328"/>
  <unicode hex="002D"/>
  <outline>
    <contour>
      <point x="308" y="375" type="line"/>
      <point x="18" y="375" type="line"/>
      <point x="18" y="323" type="line"/>
      <point x="308" y="323" type="line"/>
    </contour>
  </outline>
</glyph>
<glyph name="equal" format="1">
  <advance width="329"/>
  <unicode hex="003D"/>
  <outline>
    <contour>
      <point x="309" y="374" type="line"/>
      <point x="19" y="374" type="line"/>
      <point x="19" y="324" type="line"/>
      <point x="309" y="324" type="line"/>
    </contour>
    <contour>
      <point x="309" y="279" type="line"/>
      <point x="19" y="279" type="line"/>
      <point x="19" y="229" type="line"/>
      <point x="309" y="229" type="line"/>
    </contour>
  </outline>
</glyph>
<glyph name="G" format="1">
  <advance width="401"/>
  <unicode hex="0047"/>
  <outline>
    <contour>
      <point x="304" y="578" type="curve"/>
      <point x="319" y="613" type="line"/>
      <point x="280" y="633"/>
      <point x="236" y="643"/>
      <point x="190" y="643" type="curve" smooth="yes"/>
      <point x="153" y="643"/>
      <point x="120" y="635"/>
      <point x="93" y="620" type="curve" smooth="yes"/>
      <point x="41" y="588"/>
      <point x="14" y="533"/>
      <point x="14" y="456" type="curve" smooth="yes"/>
      <point x="14" y="171" type="line" smooth="yes"/>
      <point x="14" y="111"/>
      <point x="32" y="66"/>
      <point x="70" y="36" type="curve" smooth="yes"/>
      <point x="107" y="6"/>
      <point x="153" y="-9"/>
      <point x="207" y="-9" type="curve" smooth="yes"/>
      <point x="263" y="-9"/>
      <point x="305" y="6"/>
      <point x="337" y="37" type="curve"/>
      <point x="350" y="0" type="line"/>
      <point x="387" y="0" type="line"/>
      <point x="387" y="272" type="line"/>
      <point x="204" y="272" type="line"/>
      <point x="222" y="222" type="line"/>
      <point x="339" y="222" type="line"/>
      <point x="339" y="169" type="line" smooth="yes"/>
      <point x="339" y="130"/>
      <point x="326" y="99"/>
      <point x="303" y="76" type="curve" smooth="yes"/>
      <point x="280" y="53"/>
      <point x="246" y="40"/>
      <point x="205" y="40" type="curve" smooth="yes"/>
      <point x="124" y="40"/>
      <point x="65" y="89"/>
      <point x="65" y="169" type="curve" smooth="yes"/>
      <point x="65" y="464" type="line" smooth="yes"/>
      <point x="65" y="511"/>
      <point x="78" y="545"/>
      <point x="104" y="567" type="curve" smooth="yes"/>
      <point x="128" y="587"/>
      <point x="162" y="597"/>
      <point x="207" y="597" type="curve" smooth="yes"/>
      <point x="237" y="597"/>
      <point x="270" y="591"/>
    </contour>
  </outline>
</glyph>
<glyph name="Z" format="1">
  <advance width="464"/>
  <unicode hex="005A"/>
  <outline>
    <contour>
      <point x="22" y="588" type="line"/>
      <point x="382" y="588" type="line"/>
      <point x="11" y="45" type="line"/>
      <point x="11" y="0" type="line"/>
      <point x="452" y="0" type="line"/>
      <point x="452" y="46" type="line"/>
      <point x="75" y="46" type="line"/>
      <point x="447" y="589" type="line"/>
      <point x="447" y="635" type="line"/>
      <point x="22" y="635" type="line"/>
    </contour>
  </outline>
</glyph>
<glyph name="asciicircum" format="1">
  <advance width="380"/>
  <unicode hex="005E"/>
  <outline>
    <contour>
      <point x="318" y="700" type="line"/>
      <point x="202" y="815" type="line"/>
      <point x="82" y="699" type="line"/>
      <point x="117" y="664" type="line"/>
      <point x="202" y="746" type="line"/>
      <point x="283" y="666" type="line"/>
    </contour>
  </outline>
</glyph>
<glyph name="t" format="1">
  <advance width="185"/>
  <unicode hex="0074"/>
  <outline>
    <contour>
      <point x="69" y="120" type="curve" smooth="yes"/>
      <point x="69" y="406" type="line"/>
      <point x="156" y="406" type="line"/>
      <point x="178" y="454" type="line"/>
      <point x="69" y="454" type="line"/>
      <point x="69" y="635" type="line"/>
      <point x="18" y="635" type="line"/>
      <point x="18" y="120" type="line" smooth="yes"/>
      <point x="18" y="48"/>
      <point x="46" y="7"/>
      <point x="114" y="-12" type="curve"/>
      <point x="129" y="27" type="line"/>
      <point x="89" y="41"/>
      <point x="69" y="72"/>
    </contour>
  </outline>
</glyph>
<glyph name="bar" format="1">
  <advance width="92"/>
  <unicode hex="007C"/>
  <outline>
    <contour>
      <point x="71" y="741" type="line"/>
      <point x="21" y="741" type="line"/>
      <point x="21" y="-103" type="line"/>
      <point x="71" y="-103" type="line"/>
    </contour>
  </outline>
</glyph>
<glyph name="AE" format="1">
  <advance width="651"/>
  <unicode hex="00C6"/>
  <outline>
    <contour>
      <point x="636" y="45" type="line"/>
      <point x="385" y="45" type="line"/>
      <point x="385" y="323" type="line"/>
      <point x="542" y="323" type="line"/>
      <point x="559" y="375" type="line"/>
      <point x="385" y="375" type="line"/>
      <point x="385" y="586" type="line"/>
      <point x="639" y="586" type="line"/>
      <point x="639" y="635" type="line"/>
      <point x="250" y="635" type="line"/>
      <point x="4" y="0" type="line"/>
      <point x="57" y="0" type="line"/>
      <point x="143" y="221" type="line"/>
      <point x="334" y="221" type="line"/>
      <point x="334" y="0" type="line"/>
      <point x="636" y="0" type="line"/>
    </contour>
    <contour>
      <point x="334" y="586" type="line"/>
      <point x="334" y="272" type="line"/>
      <point x="162" y="272" type="line"/>
      <point x="285" y="586" type="line"/>
    </contour>
  </outline>
</glyph>
<glyph name="Ecircumflex" format="1">
  <advance width="335"/>
  <unicode hex="00CA"/>
  <outline>
    <contour>
      <point x="321" y="45" type="line"/>
      <point x="71" y="45" type="line"/>
      <point x="71" y="324" type="line"/>
      <point x="227" y="324" type="line"/>
      <point x="244" y="374" type="line"/>
      <point x="71" y="374" type="line"/>
      <point x="71" y="587" type="line"/>
      <point x="323" y="587" type="line"/>
      <point x="323" y="635" type="line"/>
      <point x="20" y="635" type="line"/>
      <point x="20" y="0" type="line"/>
      <point x="321" y="0" type="line"/>
    </contour>
    <contour>
      <point x="173" y="757" type="line"/>
      <point x="254" y="677" type="line"/>
      <point x="290" y="711" type="line"/>
      <point x="173" y="826" type="line"/>
      <point x="53" y="710" type="line"/>
      <point x="89" y="675" type="line"/>
    </contour>
  </outline>
</glyph>
<glyph name="Idieresis" format="1">
  <advance width="191"/>
  <unicode hex="00CF"/>
  <outline>
    <contour>
      <point x="91" y="0" type="line"/>
      <point x="141" y="0" type="line"/>
      <point x="141" y="635" type="line"/>
      <point x="29" y="635" type="line"/>
      <point x="29" y="590" type="line"/>
      <point x="91" y="588" type="line"/>
    </contour>
    <contour>
      <point x="160" y="758" type="curve" smooth="yes"/>
      <point x="143" y="758"/>
      <point x="130" y="744"/>
      <point x="130" y="727" type="curve" smooth="yes"/>
      <point x="130" y="711"/>
      <point x="143" y="697"/>
      <point x="160" y="697" type="curve" smooth="yes"/>
      <point x="177" y="697"/>
      <point x="191" y="711"/>
      <point x="191" y="727" type="curve" smooth="yes"/>
      <point x="191" y="744"/>
      <point x="177" y="758"/>
    </contour>
    <contour>
      <point x="17" y="758" type="curve" smooth="yes"/>
      <point x="0" y="758"/>
      <point x="-14" y="744"/>
      <point x="-14" y="727" type="curve" smooth="yes"/>
      <point x="-14" y="711"/>
      <point x="0" y="697"/>
      <point x="17" y="697" type="curve" smooth="yes"/>
      <point x="33" y="697"/>
      <point x="47" y="711"/>
      <point x="47" y="727" type="curve" smooth="yes"/>
      <point x="47" y="744"/>
      <point x="33" y="758"/>
    </contour>
  </outline>
</glyph>
<glyph name="Ntilde" format="1">
  <advance width="485"/>
  <unicode hex="00D1"/>
  <outline>
    <contour>
      <point x="414" y="93" type="line"/>
      <point x="70" y="635" type="line"/>
      <point x="19" y="635" type="line"/>
      <point x="19" y="0" type="line"/>
      <point x="70" y="0" type="line"/>
      <point x="70" y="541" type="line"/>
      <point x="414" y="0" type="line"/>
      <point x="465" y="0" type="line"/>
      <point x="465" y="635" type="line"/>
      <point x="414" y="635" type="line"/>
    </contour>
    <contour>
      <point x="360" y="711" type="curve"/>
      <point x="341" y="754" type="line"/>
      <point x="329" y="744"/>
      <point x="311" y="736"/>
      <point x="294" y="736" type="curve" smooth="yes"/>
      <point x="281" y="736"/>
      <point x="239" y="759"/>
      <point x="195" y="759" type="curve" smooth="yes"/>
      <point x="171" y="759"/>
      <point x="145" y="753"/>
      <point x="124" y="730" type="curve"/>
      <point x="145" y="688" type="line"/>
      <point x="158" y="699"/>
      <point x="168" y="705"/>
      <point x="186" y="706" type="curve" smooth="yes"/>
      <point x="214" y="708"/>
      <point x="254" y="684"/>
      <point x="295" y="684" type="curve" smooth="yes"/>
      <point x="317" y="684"/>
      <point x="339" y="691"/>
    </contour>
  </outline>
</glyph>
<glyph name="ugrave" format="1">
  <advance width="365"/>
  <unicode hex="00F9"/>
  <outline>
    <contour>
      <point x="298" y="44" type="curve"/>
      <point x="298" y="0" type="line"/>
      <point x="349" y="0" type="line"/>
      <point x="349" y="454" type="line"/>
      <point x="298" y="454" type="line"/>
      <point x="298" y="156" type="line" smooth="yes"/>
      <point x="298" y="92"/>
      <point x="247" y="40"/>
      <point x="183" y="40" type="curve" smooth="yes"/>
      <point x="125" y="40"/>
      <point x="65" y="62"/>
      <point x="65" y="145" type="curve" smooth="yes"/>
      <point x="65" y="454" type="line"/>
      <point x="14" y="454" type="line"/>
      <point x="14" y="142" type="line" smooth="yes"/>
      <point x="14" y="39"/>
      <point x="71" y="-9"/>
      <point x="172" y="-9" type="curve" smooth="yes"/>
      <point x="217" y="-9"/>
      <point x="267" y="8"/>
    </contour>
    <contour>
      <point x="113" y="565" type="curve"/>
      <point x="161" y="494" type="line"/>
      <point x="193" y="494" type="line"/>
      <point x="159" y="591" type="line"/>
      <point x="154" y="608"/>
      <point x="135" y="618"/>
      <point x="119" y="609" type="curve" smooth="yes"/>
      <point x="103" y="600"/>
      <point x="102" y="579"/>
    </contour>
  </outline>
</glyph>
<glyph name="Idot" format="1">
  <advance width="138"/>
  <unicode hex="0130"/>
  <outline>
    <contour>
      <point x="63" y="0" type="line"/>
      <point x="114" y="0" type="line"/>
      <point x="114" y="635" type="line"/>
      <point x="2" y="635" type="line"/>
      <point x="2" y="590" type="line"/>
      <point x="63" y="588" type="line"/>
    </contour>
    <contour>
      <point x="90" y="758" type="curve" smooth="yes"/>
      <point x="73" y="758"/>
      <point x="59" y="744"/>
      <point x="59" y="727" type="curve" smooth="yes"/>
      <point x="59" y="710"/>
      <point x="73" y="697"/>
      <point x="90" y="697" type="curve" smooth="yes"/>
      <point x="106" y="697"/>
      <point x="120" y="710"/>
      <point x="120" y="727" type="curve" smooth="yes"/>
      <point x="120" y="744"/>
      <point x="106" y="758"/>
    </contour>
  </outline>
</glyph>
<glyph name="Nacute" format="1">
  <advance width="485"/>
  <unicode hex="0143"/>
  <outline>
    <contour>
      <point x="414" y="93" type="line"/>
      <point x="70" y="635" type="line"/>
      <point x="19" y="635" type="line"/>
      <point x="19" y="0" type="line"/>
      <point x="70" y="0" type="line"/>
      <point x="70" y="541" type="line"/>
      <point x="414" y="0" type="line"/>
      <point x="465" y="0" type="line"/>
      <point x="465" y="635" type="line"/>
      <point x="414" y="635" type="line"/>
    </contour>
    <contour>
      <point x="255" y="780" type="curve"/>
      <point x="220" y="683" type="line"/>
      <point x="253" y="683" type="line"/>
      <point x="301" y="755" type="line"/>
      <point x="312" y="768"/>
      <point x="311" y="789"/>
      <point x="295" y="798" type="curve" smooth="yes"/>
      <point x="279" y="807"/>
      <point x="260" y="797"/>
    </contour>
  </outline>
</glyph>
<glyph name="Ncaron" format="1">
  <advance width="485"/>
  <unicode hex="0147"/>
  <outline>
    <contour>
      <point x="414" y="93" type="line"/>
      <point x="70" y="635" type="line"/>
      <point x="19" y="635" type="line"/>
      <point x="19" y="0" type="line"/>
      <point x="70" y="0" type="line"/>
      <point x="70" y="541" type="line"/>
      <point x="414" y="0" type="line"/>
      <point x="465" y="0" type="line"/>
      <point x="465" y="635" type="line"/>
      <point x="414" y="635" type="line"/>
    </contour>
    <contour>
      <point x="124" y="797" type="line"/>
      <point x="240" y="683" type="line"/>
      <point x="360" y="799" type="line"/>
      <point x="325" y="833" type="line"/>
      <point x="240" y="752" type="line"/>
      <point x="159" y="832" type="line"/>
    </contour>
  </outline>
</glyph>
<glyph name="Tcommaaccent" format="1">
  <advance width="345"/>
  <unicode hex="0162"/>
  <outline>
    <contour>
      <point x="354" y="635" type="line"/>
      <point x="-11" y="635" type="line"/>
      <point x="-11" y="589" type="line"/>
      <point x="144" y="589" type="line"/>
      <point x="144" y="0" type="line"/>
      <point x="194" y="0" type="line"/>
      <point x="194" y="589" type="line"/>
      <point x="354" y="589" type="line"/>
    </contour>
    <contour>
      <point x="136" y="-180" type="curve"/>
      <point x="152" y="-191" type="line"/>
      <point x="170" y="-174"/>
      <point x="199" y="-139"/>
      <point x="200" y="-82" type="curve"/>
      <point x="199" y="-64"/>
      <point x="186" y="-51"/>
      <point x="169" y="-51" type="curve" smooth="yes"/>
      <point x="152" y="-51"/>
      <point x="139" y="-65"/>
      <point x="139" y="-82" type="curve" smooth="yes"/>
      <point x="139" y="-97"/>
      <point x="150" y="-109"/>
      <point x="164" y="-112" type="curve"/>
      <point x="162" y="-131"/>
      <point x="155" y="-156"/>
    </contour>
  </outline>
</glyph>
<glyph name="umacron" format="1">
  <advance width="366"/>
  <unicode hex="016B"/>
  <outline>
    <contour>
      <point x="298" y="44" type="curve"/>
      <point x="298" y="0" type="line"/>
      <point x="349" y="0" type="line"/>
      <point x="349" y="454" type="line"/>
      <point x="298" y="454" type="line"/>
      <point x="298" y="156" type="line" smooth="yes"/>
      <point x="298" y="92"/>
      <point x="247" y="40"/>
      <point x="183" y="40" type="curve" smooth="yes"/>
      <point x="125" y="40"/>
      <point x="65" y="62"/>
      <point x="65" y="145" type="curve" smooth="yes"/>
      <point x="65" y="454" type="line"/>
      <point x="14" y="454" type="line"/>
      <point x="14" y="142" type="line" smooth="yes"/>
      <point x="14" y="39"/>
      <point x="71" y="-9"/>
      <point x="172" y="-9" type="curve" smooth="yes"/>
      <point x="217" y="-9"/>
      <point x="267" y="8"/>
    </contour>
    <contour>
      <point x="282" y="546" type="line"/>
      <point x="82" y="546" type="line"/>
      <point x="82" y="494" type="line"/>
      <point x="282" y="494" type="line"/>
    </contour>
  </outline>
</glyph>
<glyph name="ubreve" format="1">
  <advance width="366"/>
  <unicode hex="016D"/>
  <outline>
    <contour>
      <point x="298" y="44" type="curve"/>
      <point x="298" y="0" type="line"/>
      <point x="349" y="0" type="line"/>
      <point x="349" y="454" type="line"/>
      <point x="298" y="454" type="line"/>
      <point x="298" y="156" type="line" smooth="yes"/>
      <point x="298" y="92"/>
      <point x="247" y="40"/>
      <point x="183" y="40" type="curve" smooth="yes"/>
      <point x="125" y="40"/>
      <point x="65" y="62"/>
      <point x="65" y="145" type="curve" smooth="yes"/>
      <point x="65" y="454" type="line"/>
      <point x="14" y="454" type="line"/>
      <point x="14" y="142" type="line" smooth="yes"/>
      <point x="14" y="39"/>
      <point x="71" y="-9"/>
      <point x="172" y="-9" type="curve" smooth="yes"/>
      <point x="217" y="-9"/>
      <point x="267" y="8"/>
    </contour>
    <contour>
      <point x="291" y="596" type="curve" smooth="yes"/>
      <point x="291" y="603" type="line"/>
      <point x="250" y="603" type="line"/>
      <point x="250" y="596" type="line" smooth="yes"/>
      <point x="250" y="562"/>
      <point x="223" y="535"/>
      <point x="189" y="535" type="curve" smooth="yes"/>
      <point x="155" y="535"/>
      <point x="127" y="562"/>
      <point x="127" y="596" type="curve" smooth="yes"/>
      <point x="127" y="603" type="line"/>
      <point x="86" y="603" type="line"/>
      <point x="86" y="596" type="line" smooth="yes"/>
      <point x="86" y="540"/>
      <point x="132" y="494"/>
      <point x="189" y="494" type="curve" smooth="yes"/>
      <point x="245" y="494"/>
      <point x="291" y="540"/>
    </contour>
  </outline>
</glyph>
<glyph name="Zacute" format="1">
  <advance width="464"/>
  <unicode hex="0179"/>
  <outline>
    <contour>
      <point x="22" y="588" type="line"/>
      <point x="382" y="588" type="line"/>
      <point x="11" y="45" type="line"/>
      <point x="11" y="0" type="line"/>
      <point x="452" y="0" type="line"/>
      <point x="452" y="46" type="line"/>
      <point x="75" y="46" type="line"/>
      <point x="447" y="589" type="line"/>
      <point x="447" y="635" type="line"/>
      <point x="22" y="635" type="line"/>
    </contour>
    <contour>
      <point x="244" y="771" type="curve"/>
      <point x="209" y="674" type="line"/>
      <point x="241" y="674" type="line"/>
      <point x="290" y="746" type="line"/>
      <point x="301" y="759"/>
      <point x="300" y="780"/>
      <point x="284" y="789" type="curve" smooth="yes"/>
      <point x="267" y="798"/>
      <point x="249" y="788"/>
    </contour>
  </outline>
</glyph>
<glyph name="dotlessj" format="1">
  <advance width="135"/>
  <unicode hex="0237"/>
  <outline>
    <contour>
      <point x="117" y="-57" type="curve" smooth="yes"/>
      <point x="117" y="454" type="line"/>
      <point x="9" y="454" type="line"/>
      <point x="9" y="406" type="line"/>
      <point x="66" y="406" type="line"/>
      <point x="66" y="-56" type="line" smooth="yes"/>
      <point x="66" y="-82"/>
      <point x="61" y="-103"/>
      <point x="49" y="-119" type="curve" smooth="yes"/>
      <point x="39" y="-133"/>
      <point x="25" y="-144"/>
      <point x="7" y="-151" type="curve"/>
      <point x="22" y="-190" type="line"/>
      <point x="52" y="-180"/>
      <point x="73" y="-168"/>
      <point x="89" y="-151" type="curve" smooth="yes"/>
      <point x="109" y="-128"/>
      <point x="117" y="-98"/>
    </contour>
  </outline>
</glyph>
<glyph name="circumflex" format="1">
  <advance width="380"/>
  <unicode hex="02C6"/>
  <outline>
    <contour>
      <point x="290" y="584" type="line"/>
      <point x="173" y="699" type="line"/>
      <point x="54" y="583" type="line"/>
      <point x="89" y="548" type="line"/>
      <point x="173" y="630" type="line"/>
      <point x="254" y="550" type="line"/>
    </contour>
  </outline>
</glyph>
<glyph name="dotaccent" format="1">
  <advance width="187"/>
  <unicode hex="02D9"/>
  <outline>
    <contour>
      <point x="26" y="680" type="curve" smooth="yes"/>
      <point x="9" y="680"/>
      <point x="-4" y="666"/>
      <point x="-4" y="649" type="curve" smooth="yes"/>
      <point x="-4" y="633"/>
      <point x="9" y="619"/>
      <point x="26" y="619" type="curve" smooth="yes"/>
      <point x="43" y="619"/>
      <point x="56" y="633"/>
      <point x="56" y="649" type="curve" smooth="yes"/>
      <point x="56" y="666"/>
      <point x="43" y="680"/>
    </contour>
  </outline>
</glyph>
<glyph name="Gamma" format="1">
  <advance width="307"/>
  <unicode hex="0393"/>
  <outline>
    <contour>
      <point x="71" y="586" type="line"/>
      <point x="323" y="586" type="line"/>
      <point x="323" y="635" type="line"/>
      <point x="20" y="635" type="line"/>
      <point x="20" y="0" type="line"/>
      <point x="71" y="0" type="line"/>
    </contour>
  </outline>
</glyph>
<glyph name="Kappa" format="1">
  <advance width="383"/>
  <unicode hex="039A"/>
  <outline>
    <contour>
      <point x="20" y="635" type="line"/>
      <point x="20" y="0" type="line"/>
      <point x="71" y="0" type="line"/>
      <point x="71" y="244" type="line"/>
      <point x="114" y="313" type="line"/>
      <point x="319" y="0" type="line"/>
      <point x="380" y="0" type="line"/>
      <point x="147" y="361" type="line"/>
      <point x="333" y="635" type="line"/>
      <point x="274" y="635" type="line"/>
      <point x="71" y="333" type="line"/>
      <point x="71" y="635" type="line"/>
    </contour>
  </outline>
</glyph>
<glyph name="Lambda" format="1">
  <advance width="467"/>
  <unicode hex="039B"/>
  <outline>
    <contour>
      <point x="463" y="0" type="line"/>
      <point x="256" y="635" type="line"/>
      <point x="208" y="635" type="line"/>
      <point x="5" y="0" type="line"/>
      <point x="59" y="0" type="line"/>
      <point x="232" y="556" type="line"/>
      <point x="408" y="0" type="line"/>
    </contour>
  </outline>
</glyph>
<glyph name="Nu" format="1">
  <advance width="487"/>
  <unicode hex="039D"/>
  <outline>
    <contour>
      <point x="415" y="93" type="line"/>
      <point x="71" y="635" type="line"/>
      <point x="20" y="635" type="line"/>
      <point x="20" y="0" type="line"/>
      <point x="71" y="0" type="line"/>
      <point x="71" y="541" type="line"/>
      <point x="415" y="0" type="line"/>
      <point x="466" y="0" type="line"/>
      <point x="466" y="635" type="line"/>
      <point x="415" y="635" type="line"/>
    </contour>
  </outline>
</glyph>
<glyph name="iotatonos" format="1">
  <advance width="126"/>
  <unicode hex="03AF"/>
  <outline>
    <contour>
      <point x="68" y="454" type="line"/>
      <point x="18" y="454" type="line"/>
      <point x="18" y="0" type="line"/>
      <point x="68" y="0" type="line"/>
    </contour>
    <contour>
      <point x="63" y="592" type="curve" smooth="yes"/>
      <point x="29" y="494" type="line"/>
      <point x="61" y="494" type="line"/>
      <point x="109" y="566" type="line"/>
      <point x="121" y="580"/>
      <point x="119" y="601"/>
      <point x="103" y="610" type="curve" smooth="yes"/>
      <point x="87" y="618"/>
      <point x="69" y="608"/>
    </contour>
  </outline>
</glyph>
<glyph name="epsilon" format="1">
  <advance width="330"/>
  <unicode hex="03B5"/>
  <outline>
    <contour>
      <point x="259" y="403" type="curve"/>
      <point x="259" y="450" type="line"/>
      <point x="224" y="459"/>
      <point x="193" y="463"/>
      <point x="166" y="463" type="curve" smooth="yes"/>
      <point x="65" y="463"/>
      <point x="27" y="401"/>
      <point x="28" y="344" type="curve" smooth="yes"/>
      <point x="29" y="305"/>
      <point x="48" y="269"/>
      <point x="78" y="253" type="curve"/>
      <point x="31" y="233"/>
      <point x="10" y="186"/>
      <point x="10" y="137" type="curve" smooth="yes"/>
      <point x="10" y="63"/>
      <point x="64" y="-10"/>
      <point x="169" y="-10" type="curve" smooth="yes"/>
      <point x="222" y="-10"/>
      <point x="280" y="2"/>
      <point x="323" y="21" type="curve"/>
      <point x="308" y="67" type="line"/>
      <point x="265" y="50"/>
      <point x="219" y="38"/>
      <point x="178" y="37" type="curve" smooth="yes"/>
      <point x="112" y="36"/>
      <point x="61" y="78"/>
      <point x="61" y="132" type="curve" smooth="yes"/>
      <point x="61" y="200"/>
      <point x="120" y="224"/>
      <point x="152" y="224" type="curve" smooth="yes"/>
      <point x="161" y="224"/>
      <point x="232" y="224"/>
      <point x="241" y="224" type="curve"/>
      <point x="259" y="273" type="line"/>
      <point x="151" y="273" type="line" smooth="yes"/>
      <point x="109" y="273"/>
      <point x="81" y="310"/>
      <point x="81" y="346" type="curve" smooth="yes"/>
      <point x="81" y="377"/>
      <point x="100" y="407"/>
      <point x="148" y="414" type="curve" smooth="yes"/>
      <point x="177" y="418"/>
      <point x="203" y="421"/>
    </contour>
  </outline>
</glyph>
<glyph name="iota" format="1">
  <advance width="86"/>
  <unicode hex="03B9"/>
  <outline>
    <contour>
      <point x="68" y="454" type="line"/>
      <point x="17" y="454" type="line"/>
      <point x="17" y="0" type="line"/>
      <point x="68" y="0" type="line"/>
    </contour>
  </outline>
</glyph>
<glyph name="nu" format="1">
  <advance width="355"/>
  <unicode hex="03BD"/>
  <outline>
    <contour>
      <point x="209" y="0" type="line"/>
      <point x="350" y="454" type="line"/>
      <point x="296" y="454" type="line"/>
      <point x="175" y="53" type="line"/>
      <point x="54" y="454" type="line"/>
      <point x="1" y="454" type="line"/>
      <point x="139" y="0" type="line"/>
    </contour>
  </outline>
</glyph>
<glyph name="tau" format="1">
  <advance width="285"/>
  <unicode hex="03C4"/>
  <outline>
    <contour>
      <point x="162" y="120" type="curve" smooth="yes"/>
      <point x="162" y="405" type="line"/>
      <point x="277" y="405" type="line"/>
      <point x="277" y="453" type="line"/>
      <point x="2" y="453" type="line"/>
      <point x="2" y="405" type="line"/>
      <point x="111" y="405" type="line"/>
      <point x="111" y="120" type="line" smooth="yes"/>
      <point x="111" y="48"/>
      <point x="139" y="7"/>
      <point x="207" y="-12" type="curve"/>
      <point x="222" y="27" type="line"/>
      <point x="182" y="41"/>
      <point x="162" y="72"/>
    </contour>
  </outline>
</glyph>
<glyph name="chi" format="1">
  <advance width="410"/>
  <unicode hex="03C7"/>
  <outline>
    <contour>
      <point x="325" y="-87" type="curve" smooth="yes"/>
      <point x="215" y="138" type="line"/>
      <point x="376" y="453" type="line"/>
      <point x="319" y="453" type="line"/>
      <point x="188" y="196" type="line"/>
      <point x="63" y="453" type="line"/>
      <point x="6" y="453" type="line"/>
      <point x="159" y="140" type="line"/>
      <point x="3" y="-164" type="line"/>
      <point x="50" y="-185" type="line"/>
      <point x="187" y="83" type="line"/>
      <point x="279" y="-106" type="line" smooth="yes"/>
      <point x="309" y="-164"/>
      <point x="349" y="-192"/>
      <point x="398" y="-192" type="curve"/>
      <point x="424" y="-157" type="line"/>
      <point x="375" y="-149"/>
      <point x="345" y="-133"/>
    </contour>
  </outline>
</glyph>
<glyph name="bullet" format="1">
  <advance width="289"/>
  <unicode hex="2022"/>
  <outline>
    <contour>
      <point x="234" y="395" type="curve" smooth="yes"/>
      <point x="209" y="420"/>
      <point x="179" y="433"/>
      <point x="144" y="433" type="curve" smooth="yes"/>
      <point x="109" y="433"/>
      <point x="79" y="420"/>
      <point x="54" y="395" type="curve" smooth="yes"/>
      <point x="28" y="370"/>
      <point x="16" y="340"/>
      <point x="16" y="305" type="curve" smooth="yes"/>
      <point x="16" y="270"/>
      <point x="28" y="240"/>
      <point x="54" y="215" type="curve" smooth="yes"/>
      <point x="79" y="190"/>
      <point x="109" y="177"/>
      <point x="144" y="177" type="curve" smooth="yes"/>
      <point x="179" y="177"/>
      <point x="209" y="190"/>
      <point x="234" y="215" type="curve" smooth="yes"/>
      <point x="259" y="240"/>
      <point x="272" y="270"/>
      <point x="272" y="305" type="curve" smooth="yes"/>
      <point x="272" y="340"/>
      <point x="259" y="370"/>
    </contour>
  </outline>
</glyph>
